<svg width="200" height="200" viewBox="0 0 200 200" fill="none" xmlns="http://www.w3.org/2000/svg">
  <!-- Graduation Cap -->
  <rect x="50" y="60" width="100" height="20" fill="#4A4A4A"/>
  <rect x="60" y="50" width="80" height="10" fill="#4A4A4A"/>
  <polygon points="100,40 140,50 100,60 60,50" fill="#4A4A4A"/>
  <rect x="95" y="60" width="10" height="30" fill="#4A4A4A"/>
  <circle cx="100" cy="90" r="10" fill="#4A4A4A"/>
  
  <!-- Diploma -->
  <rect x="130" y="100" width="40" height="60" rx="5" fill="#FFFFFF" stroke="#4A4A4A" stroke-width="2"/>
  <line x1="140" y1="120" x2="160" y2="120" stroke="#4A4A4A" stroke-width="2"/>
  <line x1="140" y1="130" x2="160" y2="130" stroke="#4A4A4A" stroke-width="2"/>
  <line x1="140" y1="140" x2="160" y2="140" stroke="#4A4A4A" stroke-width="2"/>
  
  <!-- Hand -->
  <path d="M50,150 C60,140 70,130 90,130 C110,130 120,140 130,150" stroke="#F5D0A9" stroke-width="20" stroke-linecap="round"/>
  <path d="M90,130 L90,170" stroke="#F5D0A9" stroke-width="20" stroke-linecap="round"/>
  <path d="M110,140 L110,180" stroke="#F5D0A9" stroke-width="15" stroke-linecap="round"/>
  <path d="M70,140 L70,160" stroke="#F5D0A9" stroke-width="15" stroke-linecap="round"/>
  <path d="M50,145 L50,155" stroke="#F5D0A9" stroke-width="15" stroke-linecap="round"/>
</svg>